<svg width="48" height="48" viewBox="0 0 48 48" fill="none" xmlns="http://www.w3.org/2000/svg">
<g clip-path="url(#clip0_638:569)">
<path d="M27.2321 24L47.3298 3.90223C47.5422 3.69005 47.7107 3.4381 47.8257 3.16078C47.9407 2.88345 47.9999 2.58619 48 2.28597C48.0001 1.98575 47.941 1.68846 47.8261 1.41108C47.7113 1.1337 47.5429 0.881671 47.3306 0.669385C47.1183 0.457098 46.8663 0.288718 46.5889 0.173863C46.3115 0.0590079 46.0142 -7.24055e-05 45.714 6.65936e-08C45.4138 7.25387e-05 45.1165 0.0592943 44.8392 0.174283C44.5619 0.289272 44.3099 0.457775 44.0978 0.670164L24 20.7679L3.90223 0.670164C3.69005 0.457775 3.4381 0.289272 3.16078 0.174283C2.88345 0.0592943 2.58619 7.25387e-05 2.28597 6.65936e-08C1.98575 -7.24055e-05 1.68846 0.0590079 1.41108 0.173863C1.1337 0.288718 0.881671 0.457098 0.669385 0.669385C0.457098 0.881671 0.288718 1.1337 0.173863 1.41108C0.0590079 1.68846 -7.24055e-05 1.98575 6.65936e-08 2.28597C7.25387e-05 2.58619 0.0592943 2.88345 0.174283 3.16078C0.289272 3.4381 0.457775 3.69005 0.670164 3.90223L20.7679 24L0.670164 44.0978C0.457775 44.3099 0.289272 44.5619 0.174283 44.8392C0.0592943 45.1165 7.25387e-05 45.4138 6.65936e-08 45.714C-7.24055e-05 46.0142 0.0590079 46.3115 0.173863 46.5889C0.288718 46.8663 0.457098 47.1183 0.669385 47.3306C0.881671 47.5429 1.1337 47.7113 1.41108 47.8261C1.68846 47.941 1.98575 48.0001 2.28597 48C2.58619 47.9999 2.88345 47.9407 3.16078 47.8257C3.4381 47.7107 3.69005 47.5422 3.90223 47.3298L24 27.2321L44.0978 47.3298C44.5264 47.7581 45.1076 47.9986 45.7136 47.9984C46.3195 47.9983 46.9006 47.7575 47.329 47.329C47.7575 46.9006 47.9983 46.3195 47.9984 45.7136C47.9986 45.1076 47.7581 44.5264 47.3298 44.0978L27.2321 24Z" fill="white"/>
</g>
<defs>
<clipPath id="clip0_638:569">
<rect width="48" height="48" fill="white"/>
</clipPath>
</defs>
</svg>
