<svg width="48" height="48" viewBox="0 0 48 48" fill="none" xmlns="http://www.w3.org/2000/svg">
<path d="M5.82222 10C4.83631 10 4 10.8363 4 11.8222V36.4222C4 37.4081 4.83631 38.2444 5.82222 38.2444H43.1778C44.1637 38.2444 45 37.4081 45 36.4222V11.8222C45 10.8363 44.1637 10 43.1778 10H5.82222V10ZM8.41319 12.7333H40.5868L24.5 27.2826L8.41319 12.7333V12.7333ZM6.73333 14.8972L23.5889 30.1441C23.8395 30.3682 24.1638 30.492 24.5 30.492C24.8362 30.492 25.1605 30.3682 25.4111 30.1441L42.2667 14.8972V35.5111H6.73333V14.8972V14.8972Z" fill="#F28756"/>
</svg>
