<svg width="48" height="48" viewBox="0 0 48 48" fill="none" xmlns="http://www.w3.org/2000/svg">
<path d="M21.06 17.7248V21.7789H17.9316V26.6388H21.06V37.987H25.7463V26.6431H30.4367V21.7832H25.7504V18.539C25.7504 17.567 26.3752 16.9191 27.3125 16.9191H30.4408V12.0549H26.5273C23.5593 12.0549 21.06 14.6469 21.06 17.7248Z" fill="#F28756"/>
<path d="M24.1429 3C13.0643 3 4 12.4 4 23.8889C4 35.3735 13.0643 44.7778 24.1429 44.7778C35.2214 44.7778 44.2857 35.3778 44.2857 23.8889C44.2857 12.4 35.2214 3 24.1429 3ZM24.1429 43.0385C13.9851 43.0385 5.6772 34.4186 5.6772 23.8889C5.6772 13.3592 13.9851 4.73932 24.1429 4.73932C34.3006 4.73932 42.6085 13.3592 42.6085 23.8889C42.6085 34.4186 34.3006 43.0385 24.1429 43.0385Z" fill="#F28756" stroke="#F28756" stroke-width="2"/>
</svg>
