<svg width="48" height="48" viewBox="0 0 48 48" fill="none" xmlns="http://www.w3.org/2000/svg">
<path d="M2.43393 45.1641C21.7987 45.1641 26.5774 45.1641 45.5644 45.1641C45.9489 45.1641 46.26 44.8527 46.26 44.4685C46.26 44.0843 45.9489 43.7728 45.5644 43.7728H44.08V33.9321C44.08 33.548 43.7688 33.2365 43.3843 33.2365H40.5807V14.247H41.2437C41.6282 14.247 41.9394 13.9355 41.9394 13.5514V10.5704H45.3191C45.7036 10.5704 46.0148 10.2589 46.0148 9.87474V5.80171C46.0148 5.41754 45.7036 5.10606 45.3191 5.10606H41.9394V3.52964C41.9394 3.14546 41.6282 2.83398 41.2437 2.83398H33.4761C33.0915 2.83398 32.7804 3.14546 32.7804 3.52964V4.59723C8.91194 4.60038 37.2085 4.59746 13.0956 4.59723C12.9111 4.59723 12.7001 4.70102 12.6004 4.80104L7.51002 9.89139C7.31098 10.0904 7.25119 10.3894 7.35921 10.6495C7.46655 10.9094 7.72062 11.0789 8.00187 11.0789H12.3986V16.0346L2.27021 23.4552C2.02769 23.6329 1.92646 23.9468 2.02021 24.2328C2.11328 24.5188 2.38026 24.712 2.68122 24.712H23.5093C23.8103 24.712 24.0773 24.5184 24.1704 24.2324C24.2641 23.9464 24.1629 23.6326 23.9203 23.4549L13.7899 16.043V11.0789C15.9045 11.0826 30.6888 11.0792 32.7804 11.0789V13.5514C32.7804 13.9355 33.0915 14.247 33.4761 14.247H34.097V33.2365H31.294C30.9095 33.2365 30.5983 33.548 30.5983 33.9321V43.7728H21.4428V28.5802C21.4428 28.1961 21.1316 27.8846 20.7471 27.8846H5.4414C5.0569 27.8846 4.74575 28.1961 4.74575 28.5802V43.7728H2.43393C2.04943 43.7728 1.73828 44.0843 1.73828 44.4685C1.73828 44.8527 2.04943 45.1641 2.43393 45.1641ZM41.9421 6.49737H44.6235V9.17909H41.9421V6.49737ZM34.1717 4.22529H40.5481V12.8557H34.1717V4.22529ZM32.7763 8.99206L28.7709 5.98853H32.7763V8.99206ZM24.5912 5.99023L20.5854 8.99435V5.99023H24.5912ZM19.1885 8.99197L15.1833 5.98854H19.188L19.1885 8.99197ZM12.3966 9.68758H9.68122L12.3966 6.97223V9.68758ZM4.80758 23.3207L13.0881 17.2538L21.3803 23.3207H4.80758ZM13.7914 6.6838L17.7971 9.68758H13.792L13.7914 6.6838ZM21.9769 9.68928L25.9822 6.6855V9.68928H21.9769ZM27.3796 6.68422L31.3847 9.68758H27.3796V6.68422ZM35.4883 33.2338V14.2494H39.1894V33.2338H35.4883ZM10.3198 43.7728V39.0646C10.3198 37.5347 11.5644 36.2898 13.0943 36.2898C14.6242 36.2898 15.8687 37.5347 15.8687 39.0646V43.7728H10.3198ZM31.9896 34.6278H42.6887V43.7728H31.9896V34.6278ZM6.13706 29.2759H20.0515V43.7728H17.26V39.0646C17.26 36.7674 15.3911 34.8985 13.0943 34.8985C10.7974 34.8985 8.9285 36.7674 8.9285 39.0646V43.7728H6.13706V29.2759Z" fill="black"/>
<path d="M11.0859 20.5854C11.0859 21.6941 11.9881 22.5963 13.0975 22.5963C14.2062 22.5963 15.1084 21.6941 15.1084 20.5854C15.1084 19.4764 14.2062 18.5742 13.0975 18.5742C11.9881 18.5742 11.0859 19.4764 11.0859 20.5854ZM13.0975 19.9655C13.4392 19.9655 13.7171 20.2437 13.7171 20.5854C13.7171 20.9271 13.4392 21.205 13.0975 21.205C12.7558 21.205 12.4772 20.9271 12.4772 20.5854C12.4772 20.2437 12.7558 19.9655 13.0975 19.9655Z" fill="black"/>
</svg>
