<svg width="48" height="48" viewBox="0 0 48 48" fill="none" xmlns="http://www.w3.org/2000/svg">
<path d="M44.4892 35.964C43.8444 35.749 43.1997 35.6774 42.4116 35.749V24.358H44.9191C45.3489 24.358 45.6355 24.0714 45.6355 23.6416C45.6355 23.4267 45.5639 23.2117 45.4206 23.1401L43.0564 19.9879V12.4655C43.0564 12.2505 42.9847 12.1073 42.8415 11.964C42.6982 11.8207 42.5549 11.749 42.34 11.749H38.1847C37.7549 11.749 37.4683 12.0356 37.4683 12.4655V14.6864L35.1041 12.4655C35.1041 12.1789 35.1758 11.8207 35.1758 11.4625C35.3191 6.30427 31.0922 2.14904 25.934 2.14904C25.0027 2.14904 24.0713 2.29233 23.2116 2.5789C20.8474 -0.215134 16.6206 -0.43006 14.0415 2.14904C12.3937 3.79681 11.8206 6.23263 12.537 8.45352L3.2952 17.6953C3.15191 17.8386 3.08027 17.9819 3.08027 18.1968L3.00863 21.4207C3.00863 21.8505 3.2952 22.1371 3.72505 22.1371L6.94893 22.0655C7.23549 22.0655 7.52206 21.8505 7.5937 21.564L8.23848 19.4147L9.95788 19.1998C10.2444 19.1281 10.4594 18.9132 10.531 18.6267L10.8892 17.1938L12.1788 16.9789C12.4653 16.9073 12.6803 16.6923 12.7519 16.4058L13.1101 14.9729L14.4713 14.6864C14.6146 14.6864 14.7579 14.6147 14.8295 14.4714L16.6206 12.6804C16.9788 15.5461 18.6265 18.1252 21.0624 19.558L17.4803 23.1401C17.2653 23.355 17.1937 23.6416 17.337 23.9282C17.4803 24.2147 17.6952 24.358 17.9818 24.358H20.4892V29.4446C18.1967 28.5849 15.4027 29.3013 13.1101 30.2326L13.0385 29.8744C12.9668 29.5162 12.6086 29.2296 12.2504 29.2296L1.50415 30.4476C1.0743 30.5192 0.859375 30.8774 0.859375 31.2356L2.50714 44.9192C2.57878 45.2774 2.86535 45.564 3.22355 45.564H3.2952L14.1131 44.2744C14.543 44.2028 14.7579 43.8446 14.7579 43.4864L14.6146 42.555C19.1997 43.558 25.1459 45.9222 25.2176 45.9222C28.7997 47.4983 32.74 47.0684 36.3221 45.4923C38.9012 44.3461 43.4146 42.8416 45.4922 40.9073C47.0683 39.4744 46.5668 36.6087 44.4892 35.964ZM27.3668 33.2416V28.4416H35.6056V37.3252L35.2474 37.4684C34.6743 35.1043 30.2325 34.5311 27.3668 33.2416ZM15.9042 11.2476L13.8982 13.2535L12.3221 13.6117C12.0355 13.6834 11.8206 13.8983 11.7489 14.1132L11.3907 15.5461L10.1012 15.761C9.8146 15.8326 9.59967 16.0476 9.52803 16.2625L9.16982 17.6953L7.52206 17.9102C7.23549 17.9102 7.02057 18.1252 6.94893 18.4117L6.37579 20.561L4.44146 20.6326L4.51311 18.4834L13.8265 9.16994C14.0415 8.95502 14.1131 8.66845 13.9698 8.38188C13.2534 6.59084 13.6833 4.51322 15.0444 3.15203C16.8355 1.36099 19.7728 1.28934 21.7788 3.08039C21.4206 3.22367 21.134 3.4386 20.7758 3.65352C19.7012 2.9371 18.2683 3.00875 17.337 3.94009C16.2624 5.01472 16.2624 6.66248 17.337 7.7371C18.4116 8.81173 20.131 8.81173 21.134 7.7371C21.9221 6.94905 22.137 5.80278 21.7071 4.72815C21.9937 4.51322 22.3519 4.36994 22.6385 4.22666C23.7131 6.08934 23.4265 8.52516 21.9221 10.0296C20.4892 11.4625 18.4116 11.749 16.6922 11.1043C16.4056 11.0326 16.1191 11.1043 15.9042 11.2476ZM20.131 5.01472C20.6325 5.51621 20.6325 6.30427 20.131 6.80576C19.6295 7.30725 18.8415 7.30725 18.34 6.80576C17.8385 6.30427 17.8385 5.51621 18.34 5.01472C18.8415 4.51322 19.6295 4.51322 20.131 5.01472ZM18.125 12.8953C18.2683 12.8953 18.4116 12.8953 18.5549 12.8953C20.2027 12.8953 21.7788 12.2505 22.925 11.1043C24.8594 9.16994 25.2892 6.16098 24.0713 3.79681C24.6444 3.65352 25.2892 3.58188 25.934 3.58188C30.2325 3.58188 33.6713 6.94905 33.8862 11.1759L32.0236 9.45651C31.737 9.16994 31.3071 9.16994 31.0206 9.45651L22.137 18.4834C19.9877 17.2655 18.4833 15.2595 18.125 12.8953ZM19.7728 22.9252L22.4236 20.2028C23.4982 20.6326 24.7161 20.9192 25.934 20.9192C27.0803 20.9192 28.1549 20.7043 29.2295 20.2744C29.8027 20.9192 30.5907 21.349 31.5221 21.349C33.1698 21.349 34.531 19.9879 34.531 18.3401C34.531 16.6923 33.1698 15.3311 31.5221 15.3311C29.8743 15.3311 28.5131 16.6923 28.5131 18.3401C28.5131 18.555 28.5131 18.7699 28.5847 18.9132C26.937 19.4864 25.1459 19.4864 23.5698 18.9849L31.5221 10.961L37.7549 16.8356C37.9698 17.0505 38.2564 17.0505 38.543 16.9789C38.8295 16.8356 38.9728 16.6207 38.9728 16.3341V13.1819H41.6952V20.2028C41.6952 20.3461 41.7668 20.4893 41.8385 20.6326L43.5579 22.9252H41.7668C41.337 22.9252 41.0504 23.2117 41.0504 23.6416V35.8923C40.1191 36.0356 38.6862 36.3222 37.0385 36.8953V27.7252C37.0385 27.2953 36.7519 27.0087 36.3221 27.0087H26.6504C26.2206 27.0087 25.934 27.2953 25.934 27.7252V32.5252C25.0027 32.0237 22.4236 30.5908 21.9937 30.2326V23.6416C21.9937 23.2117 21.7071 22.9252 21.2773 22.9252H19.7728ZM29.9459 18.3401C29.9459 17.4804 30.6624 16.764 31.5221 16.764C32.3818 16.764 33.0982 17.4804 33.0982 18.3401C33.0982 19.1998 32.3818 19.9162 31.5221 19.9162C30.6624 19.9162 29.9459 19.1998 29.9459 18.3401ZM3.79669 44.0595L2.36385 31.8087L11.8206 30.6625C12.7519 38.5431 12.7519 38.4714 13.2534 42.9132L3.79669 44.0595ZM44.4892 39.9043C42.6265 41.6237 38.4713 42.9132 35.6773 44.2028C33.6713 45.1341 29.8027 46.352 25.7191 44.6326C25.4325 44.4893 19.128 41.9819 14.3997 41.0505L13.325 31.6655C15.2594 30.8058 17.9101 30.0893 19.9161 30.7341C20.9191 31.0923 20.7042 31.2356 23.928 33.0267C26.0056 34.1729 27.8683 35.1043 30.1609 35.749C31.5221 36.1073 33.528 36.967 33.8146 37.755C33.8862 37.8267 33.8862 37.9699 33.8146 38.1849C32.1668 39.6177 29.9459 39.8326 27.7967 38.3998C25.934 37.1819 23.6415 36.752 23.5698 36.752C23.2116 36.6804 22.7818 36.967 22.7101 37.3252C22.6385 37.6834 22.925 38.1132 23.2833 38.1849C23.2833 38.1849 25.3609 38.6147 27.0086 39.6177C29.731 41.4087 32.6683 41.1938 34.8176 39.2595C37.0385 38.2565 41.7668 36.6087 44.131 37.3252C45.0624 37.6117 45.3489 39.1162 44.4892 39.9043Z" fill="black"/>
</svg>
