<svg width="66" height="66" viewBox="0 0 66 66" fill="none" xmlns="http://www.w3.org/2000/svg">
<g clip-path="url(#clip0)">
<path d="M27.7174 23.3C30.9612 23.3 33.5169 20.6 33.5169 17.4C33.5169 14.1 30.8629 11.5 27.7174 11.5C24.4737 11.5 21.918 14.2 21.918 17.4C21.918 20.7 24.572 23.3 27.7174 23.3ZM27.7174 13.5C29.88 13.5 31.551 15.3 31.551 17.4C31.551 19.6 29.7817 21.3 27.7174 21.3C25.6532 21.3 23.8839 19.5 23.8839 17.4C23.8839 15.2 25.6532 13.5 27.7174 13.5Z" fill="white"/>
<path d="M65.2679 53L53.9638 38.5C53.5706 38 53.0792 37.7 52.4894 37.6L50.6218 37.2V27.6H54.2587C54.6519 27.6 55.0451 27.3 55.1434 27C55.2417 26.6 55.1434 26.2 54.8485 25.9L28.7017 1.9C28.3085 1.6 27.7187 1.6 27.4239 1.9L17.3976 11.1V1C17.3976 0.4 17.0045 0 16.4147 0H9.43565C8.84587 0 8.45268 0.4 8.45268 1V19.1L1.27706 25.7C0.982174 26 0.883877 26.4 0.982174 26.8C1.08047 27.2 1.47365 27.4 1.86684 27.4H5.5038V59.5C5.5038 60.1 5.89698 60.5 6.48676 60.5C20.1499 60.5 31.3557 60.5 46.7882 60.5L50.2286 64.9C51.1132 66.1 52.7843 66.2 53.8655 65.3L64.8747 56.8C65.956 55.9 66.1526 54.2 65.2679 53ZM10.4186 2H15.4317V12.7L10.4186 17.3V2ZM28.1119 3.8L51.703 25.5C51.3098 25.5 4.61913 25.5 4.61913 25.5L28.1119 3.8ZM7.56802 27.5H48.6558V36.6L47.378 36.3C46.2967 33.3 43.4461 31.3 40.3007 31.2C37.4501 31.2 34.5995 32.7 33.2233 35.6H20.4448C19.855 35.6 19.4619 36 19.4619 36.6V58.6H7.66632V27.5H7.56802ZM38.5313 37.6L38.433 44.7C35.9756 44 34.2063 41.7 34.2063 39C34.3046 35.8 36.8603 33.2 40.1041 33.2C41.9717 33.2 43.741 34.2 44.724 35.7L41.6768 35C41.4802 35 41.2836 34.9 41.087 34.9C39.7109 34.9 38.5313 36.1 38.5313 37.6ZM21.3295 58.6V37.6H32.437C31.9455 40.4 32.9284 43.1 34.7961 44.9V58.6H21.3295ZM36.762 58.6V46.2C37.2535 46.4 37.8432 46.6 38.433 46.8V48.8C38.433 49.4 38.6296 50 39.0228 50.5L45.4121 58.7H36.762V58.6ZM63.5969 55.2L52.686 63.9C52.3911 64.1 51.9979 64.1 51.8013 63.8L40.4972 49.2C40.3989 49.1 40.3989 48.9 40.3989 48.8V46.9C41.4802 46.9 42.4632 46.6 43.4461 46.1C44.9206 47.1 46.5916 46.8 47.6729 45.9C49.2456 44.6 49.5405 42.3 48.2626 40.7C47.1814 39.3 44.8223 38.7 43.1512 40.1C41.8734 41.1 41.3819 43 42.07 44.6C41.5785 44.8 40.9887 44.9 40.3989 44.9L40.4972 37.6C40.4972 37.2 40.7921 36.9 41.1853 36.9C41.2836 36.9 41.2836 36.9 41.3819 36.9L52.0962 39.4C52.1945 39.4 52.3911 39.5 52.4894 39.6L63.7934 54.2C63.99 54.6 63.8917 55 63.5969 55.2ZM44.3308 41.7C44.6257 41.5 45.0189 41.3 45.4121 41.3C45.0189 42.2 44.5274 42.9 43.741 43.6C43.5444 42.8 43.741 42.1 44.3308 41.7ZM46.395 44.4C46.1001 44.6 45.8052 44.7 45.4121 44.7C46.0018 44.1 46.5916 43.4 46.9848 42.6C47.1814 43.2 46.9848 43.9 46.395 44.4Z" fill="white"/>
<path d="M56.226 49.4994C55.9311 49.0994 55.243 48.9994 54.8498 49.2994L49.247 53.7994C48.8538 54.0994 48.7555 54.7994 49.0504 55.1994C49.3453 55.5994 50.0333 55.6994 50.4265 55.3994L56.0294 50.8994C56.4226 50.5994 56.5209 49.8994 56.226 49.4994Z" fill="white"/>
<path d="M57.5998 53.0007L51.997 57.5007C51.6038 57.8007 51.5055 58.5007 51.8004 58.9007C52.0953 59.3007 52.7833 59.4007 53.1765 59.1007L58.7794 54.6007C59.1726 54.3007 59.2709 53.6007 58.976 53.2007C58.6811 52.7007 58.0913 52.6007 57.5998 53.0007Z" fill="white"/>
</g>
<defs>
<clipPath id="clip0">
<rect width="65.8585" height="66" fill="white"/>
</clipPath>
</defs>
</svg>
