<svg width="48" height="48" viewBox="0 0 48 48" fill="none" xmlns="http://www.w3.org/2000/svg">
<path d="M44.0718 10.8359C41.89 10.8359 40.1445 12.5814 40.1445 14.7632V36.7268C40.1445 36.7996 40.1445 36.7996 40.1445 36.7996V36.8723L43.3445 47.4178C43.4173 47.7087 43.7082 47.9268 44.0718 47.9268C44.3627 47.9268 44.6536 47.7087 44.7991 47.4178L47.9991 36.945V36.8723V36.7996V14.7632C47.9991 12.5814 46.2536 10.8359 44.0718 10.8359ZM41.5991 18.9087H46.5445V35.9996H41.5991V18.9087ZM44.0718 12.2905C45.4536 12.2905 46.5445 13.3814 46.5445 14.7632V17.4541H41.5991V14.7632C41.5991 13.3814 42.69 12.2905 44.0718 12.2905ZM44.0718 44.7996L41.8173 37.4541H46.2536L44.0718 44.7996Z" fill="black"/>
<path d="M38.4 12L25.4545 0.218182C25.3091 0.0727273 25.1636 0 24.9455 0H0.727273C0.290909 0 0 0.290909 0 0.727273V47.2727C0 47.7091 0.290909 48 0.727273 48H37.8909C38.3273 48 38.6182 47.7091 38.6182 47.2727V12.5818C38.6182 12.3636 38.5455 12.1455 38.4 12ZM25.6727 2.4L36 11.8545H25.6727V2.4ZM1.45455 46.5455V1.45455H24.2182V12.5818C24.2182 13.0182 24.5091 13.3091 24.9455 13.3091H37.1636V46.5455H1.45455Z" fill="black"/>
<path d="M3.92623 22.8362C3.92623 23.2725 4.21714 23.5635 4.65351 23.5635C10.0353 23.5635 15.3444 23.5635 20.799 23.5635C21.2353 23.5635 21.5262 23.2725 21.5262 22.8362V11.9271H22.1808C22.6171 11.9271 22.9081 11.6362 22.9081 11.1998C22.9081 10.9089 22.7626 10.6907 22.5444 10.5453L13.1626 3.34528C12.8717 3.1271 12.5081 3.1271 12.2899 3.34528L2.83533 10.618C2.61714 10.8362 2.47169 11.1271 2.61714 11.418C2.68987 11.7089 2.98078 11.9271 3.27169 11.9271H3.92623V22.8362ZM10.1808 22.1089V18.1816C10.1808 16.7998 11.2717 15.7089 12.6535 15.7089C14.0353 15.7089 15.1262 16.7998 15.1262 18.1816V22.1089H10.1808ZM19.999 22.1089H16.5808V18.1816C16.5808 15.9998 14.8353 14.2544 12.6535 14.2544C10.4717 14.2544 8.72623 15.9998 8.72623 18.1816V22.1089H5.38078V11.9271H20.0717V22.1089H19.999ZM12.7262 4.79982L19.999 10.3998H5.38078L12.7262 4.79982Z" fill="black"/>
<path d="M34.4734 17.4551H24.0007C23.5643 17.4551 23.2734 17.746 23.2734 18.1824C23.2734 18.6187 23.5643 18.9096 24.0007 18.9096H34.4734C34.9098 18.9096 35.2007 18.6187 35.2007 18.1824C35.2007 17.746 34.8371 17.4551 34.4734 17.4551Z" fill="black"/>
<path d="M34.4734 22.3281H24.0007C23.5643 22.3281 23.2734 22.619 23.2734 23.0554C23.2734 23.4918 23.5643 23.7827 24.0007 23.7827H34.4734C34.9098 23.7827 35.2007 23.4918 35.2007 23.0554C35.2007 22.619 34.8371 22.3281 34.4734 22.3281Z" fill="black"/>
<path d="M34.4712 27.2734H4.65305C4.21669 27.2734 3.92578 27.5643 3.92578 28.0007C3.92578 28.4371 4.21669 28.728 4.65305 28.728H34.4712C34.9076 28.728 35.1985 28.4371 35.1985 28.0007C35.1985 27.5643 34.8349 27.2734 34.4712 27.2734Z" fill="black"/>
<path d="M34.4712 32.1445H4.65305C4.21669 32.1445 3.92578 32.4354 3.92578 32.8718C3.92578 33.3082 4.21669 33.5991 4.65305 33.5991H34.4712C34.9076 33.5991 35.1985 33.3082 35.1985 32.8718C35.1985 32.4354 34.8349 32.1445 34.4712 32.1445Z" fill="black"/>
<path d="M34.4711 37.0195H17.5984C17.162 37.0195 16.8711 37.3104 16.8711 37.7468C16.8711 38.1832 17.162 38.4741 17.5984 38.4741H34.4711C34.9075 38.4741 35.1984 38.1832 35.1984 37.7468C35.1984 37.3104 34.8347 37.0195 34.4711 37.0195Z" fill="black"/>
<path d="M34.4711 41.8906H17.5984C17.162 41.8906 16.8711 42.1815 16.8711 42.6179C16.8711 43.0543 17.162 43.3452 17.5984 43.3452H34.4711C34.9075 43.3452 35.1984 43.0543 35.1984 42.6179C35.1984 42.1815 34.8347 41.8906 34.4711 41.8906Z" fill="black"/>
<path d="M14.544 34.8359H4.65305C4.21669 34.8359 3.92578 35.1268 3.92578 35.5632V44.6541C3.92578 45.0905 4.21669 45.3814 4.65305 45.3814H14.544C14.9803 45.3814 15.2712 45.0905 15.2712 44.6541V35.5632C15.2712 35.1268 14.9803 34.8359 14.544 34.8359ZM13.8167 43.8541H5.38033V36.2905H13.8167V43.8541Z" fill="black"/>
<path d="M7.56338 42.6919C7.70883 42.9101 7.85429 43.0555 8.07247 43.0555C8.29065 43.0555 8.50883 42.9828 8.65429 42.8374L12.8725 38.6192C13.1634 38.3283 13.1634 37.8919 12.8725 37.601C12.5816 37.3101 12.1452 37.3101 11.8543 37.601L8.29065 41.0919L7.3452 39.2737C7.12702 38.9101 6.69065 38.8374 6.32701 38.9828C5.96338 39.201 5.81792 39.6374 6.03611 40.001L7.56338 42.6919Z" fill="black"/>
</svg>
