<svg width="25" height="18" viewBox="0 0 25 18" fill="none" xmlns="http://www.w3.org/2000/svg">
<path fill-rule="evenodd" clip-rule="evenodd" d="M15.2929 1.70712C14.9024 1.3165 14.9024 0.683441 15.2929 0.292816C15.6834 -0.0976868 16.3166 -0.0976868 16.7071 0.292816L24.7071 8.29282C25.0976 8.68344 25.0976 9.3165 24.7071 9.70712L16.7071 17.7071C16.3166 18.0976 15.6834 18.0976 15.2929 17.7071C14.9024 17.3165 14.9024 16.6834 15.2929 16.2928L21.5858 9.99997L1.00001 9.99997C0.447731 9.99997 7.62939e-06 9.55222 7.62939e-06 8.99997C7.62939e-06 8.44772 0.447731 7.99997 1.00001 7.99997L21.5858 7.99997L15.2929 1.70712Z" fill="white"/>
</svg>
