<svg width="48" height="48" viewBox="0 0 48 48" fill="none" xmlns="http://www.w3.org/2000/svg">
<path d="M44.1064 24.1561C43.397 31.1698 40.1607 36.4455 34.3973 39.9922C31.5333 41.7656 28.2349 42.732 24.5285 42.8828H23.9256C20.7956 42.8828 17.577 42.0404 14.2608 40.3646C13.5515 40.604 11.716 41.1715 8.75454 42.0936C6.48465 42.8119 4.65809 43.4148 3.2926 43.9025C3.2394 43.9025 3.17734 43.8493 3.12414 43.734L3 44C3 43.9291 4.08175 40.7725 6.24524 34.5214C6.39598 34.1313 6.47578 33.7234 6.47578 33.2978C6.47578 32.9077 6.39598 32.5175 6.22751 32.1096C4.64922 28.9797 3.86008 25.8586 3.86008 22.7375C3.93101 17.6568 5.83737 13.0993 9.59689 9.08261C12.8599 5.58023 17.2578 3.54974 22.7818 3H25.2113C30.487 3.46107 34.814 5.39403 38.1834 8.79887C41.6503 12.2392 43.6187 16.5307 44.1064 21.6823V24.1561ZM40.2582 27.6497C40.7459 25.9029 40.9853 24.2359 40.9853 22.6399C40.9853 18.8449 39.6109 15.3426 36.8534 12.1417C33.5017 8.13387 29.2013 6.13884 23.9699 6.13884C23.5266 6.13884 23.0833 6.15657 22.6399 6.18317C19.5543 6.37824 16.7346 7.39792 14.1987 9.24221C9.44615 12.7091 7.06985 17.178 7.06985 22.6488C7.06985 23.2872 7.11419 23.9345 7.19399 24.5995C7.41566 26.8605 8.0984 28.9974 9.23335 31.019C9.91609 32.2072 10.2708 32.8101 10.3151 32.8101L9.72989 34.3707C8.81661 37.1371 8.30233 38.6622 8.19593 38.9459L14.6155 36.8888C17.2489 38.4671 19.7227 39.3715 22.037 39.6109C22.6577 39.6819 23.2695 39.7173 23.8635 39.7173C26.2487 39.7173 28.5186 39.2385 30.6821 38.2809C35.5411 36.0997 38.7331 32.5619 40.2582 27.6497ZM34.1135 27.5433C34.1579 27.7206 34.1756 27.8979 34.1756 28.0664C34.1756 29.6624 33.4219 30.8417 31.9146 31.622C31.0013 32.0653 30.1323 32.287 29.3166 32.287H28.8378C27.357 32.0387 25.6458 31.4624 23.7039 30.558C21.1237 29.3432 18.7474 27.1974 16.5573 24.1384C14.9879 21.8774 14.2076 20.0065 14.2076 18.508C14.2076 15.8746 15.05 14.3406 16.7435 13.8973C17.107 13.8175 17.4529 13.7731 17.8075 13.7731C18.1445 13.7731 18.4548 13.8352 18.7385 13.9593C18.9159 14.0746 19.3237 14.8283 19.9622 16.2204C20.6006 17.7898 20.9198 18.641 20.9198 18.774C20.9198 19.1464 20.6892 19.5986 20.237 20.1218C19.6163 20.9109 19.306 21.3188 19.306 21.3454C19.306 21.638 19.7493 22.365 20.636 23.5266C21.7621 24.9364 22.968 26.0093 24.2714 26.7452C25.4507 27.4102 26.231 27.7472 26.6211 27.7472H26.7009C26.9403 27.7206 27.3748 27.295 28.0132 26.4792C28.6782 25.6369 29.1038 25.2113 29.2811 25.2113H29.3255C29.6269 25.2113 30.487 25.566 31.9057 26.2753C33.0761 26.8605 33.8209 27.2772 34.1135 27.5433Z" fill="#F28756"/>
</svg>
