<svg width="48" height="48" viewBox="0 0 48 48" fill="none" xmlns="http://www.w3.org/2000/svg">
<path d="M18.5389 0C8.31309 0 0 8.31309 0 18.5389C0 28.7648 8.31309 37.0779 18.5389 37.0779C23.262 37.0779 27.5651 35.2912 30.8414 32.375L34.4538 35.9874L33.0395 37.4016C32.937 37.5031 32.8556 37.6238 32.8001 37.7569C32.7446 37.89 32.716 38.0327 32.716 38.1769C32.716 38.3211 32.7446 38.4639 32.8001 38.597C32.8556 38.7301 32.937 38.8508 33.0395 38.9522L41.7467 47.6764C41.8481 47.7789 41.9689 47.8603 42.1019 47.9159C42.235 47.9714 42.3778 48 42.522 48C42.6662 48 42.809 47.9714 42.942 47.9159C43.0751 47.8603 43.1959 47.7789 43.2973 47.6764L47.6764 43.2973C47.7789 43.1959 47.8603 43.0751 47.9159 42.942C47.9714 42.809 48 42.6662 48 42.522C48 42.3778 47.9714 42.235 47.9159 42.1019C47.8603 41.9689 47.7789 41.8481 47.6764 41.7467L38.9522 33.0395C38.7616 32.8408 38.5027 32.7215 38.2277 32.7057C37.9528 32.6899 37.682 32.7787 37.4698 32.9543C37.4457 32.9816 37.4229 33.01 37.4016 33.0395L35.9874 34.4538L32.392 30.8414C35.3038 27.5661 37.0779 23.258 37.0779 18.5389C37.0779 8.31309 28.7648 0 18.5389 0ZM18.5389 2.18105C27.5861 2.18105 34.8968 9.49181 34.8968 18.5389C34.8968 27.5861 27.5861 34.8968 18.5389 34.8968C9.49181 34.8968 2.18105 27.5861 2.18105 18.5389C2.18105 9.49181 9.49181 2.18105 18.5389 2.18105ZM18.4197 6.52612C18.1486 6.5559 17.8986 6.68613 17.7188 6.89114C17.539 7.09616 17.4426 7.36107 17.4484 7.63368V17.4484H7.63368C7.59962 17.4468 7.56551 17.4468 7.53145 17.4484C7.38822 17.4551 7.24771 17.4899 7.11794 17.5509C6.98818 17.6119 6.8717 17.6979 6.77516 17.8039C6.67861 17.9099 6.6039 18.0339 6.55529 18.1688C6.50667 18.3037 6.48511 18.4468 6.49182 18.5901C6.49853 18.7333 6.5334 18.8738 6.59442 19.0036C6.65544 19.1333 6.74142 19.2498 6.84745 19.3463C6.95349 19.4428 7.0775 19.5175 7.2124 19.5661C7.3473 19.6147 7.49046 19.6362 7.63368 19.6295H17.4484V29.4442C17.4464 29.5887 17.4731 29.7322 17.527 29.8663C17.5808 30.0004 17.6608 30.1224 17.7623 30.2254C17.8638 30.3283 17.9847 30.41 18.118 30.4658C18.2513 30.5215 18.3944 30.5503 18.5389 30.5503C18.6835 30.5503 18.8265 30.5215 18.9599 30.4658C19.0932 30.41 19.2141 30.3283 19.3156 30.2254C19.417 30.1224 19.497 30.0004 19.5509 29.8663C19.6048 29.7322 19.6315 29.5887 19.6295 29.4442V19.6295H29.4442C29.5887 19.6315 29.7322 19.6048 29.8663 19.5509C30.0004 19.497 30.1224 19.417 30.2254 19.3156C30.3283 19.2141 30.41 19.0932 30.4658 18.9599C30.5215 18.8265 30.5503 18.6835 30.5503 18.5389C30.5503 18.3944 30.5215 18.2513 30.4658 18.118C30.41 17.9847 30.3283 17.8638 30.2254 17.7623C30.1224 17.6608 30.0004 17.5808 29.8663 17.527C29.7322 17.4731 29.5887 17.4464 29.4442 17.4484H19.6295V7.63368C19.6328 7.47844 19.603 7.32427 19.5419 7.18149C19.4809 7.03871 19.3901 6.91061 19.2755 6.80576C19.161 6.70091 19.0254 6.62172 18.8778 6.57349C18.7302 6.52527 18.574 6.50911 18.4197 6.52612ZM38.1684 35.3399L45.3591 42.5305L42.5305 45.3591L35.3399 38.1684L38.1684 35.3399Z" fill="white"/>
</svg>
