<svg width="284" height="59" viewBox="0 0 284 59" fill="none" xmlns="http://www.w3.org/2000/svg">
<g clip-path="url(#clip0)">
<path d="M70.77 42.6599L75.39 21.7999H78.63L74 42.6599H70.77ZM75.91 16.9199C75.9228 16.2715 76.1861 15.6532 76.6447 15.1946C77.1033 14.736 77.7216 14.4727 78.37 14.4599C78.6264 14.4519 78.8819 14.4949 79.1216 14.5863C79.3613 14.6777 79.5806 14.8158 79.7666 14.9925C79.9526 15.1692 80.1017 15.381 80.2053 15.6158C80.3088 15.8505 80.3648 16.1034 80.37 16.3599C80.3648 17.0107 80.1039 17.6334 79.6437 18.0936C79.1835 18.5538 78.5608 18.8147 77.91 18.8199C77.6525 18.8321 77.3953 18.792 77.1537 18.7021C76.9122 18.6122 76.6913 18.4743 76.5045 18.2968C76.3176 18.1193 76.1686 17.9058 76.0664 17.6691C75.9643 17.4325 75.9111 17.1777 75.91 16.9199V16.9199Z" fill="#455351"/>
<path d="M92.28 42.6598L95.3 28.9998C95.4238 28.5187 95.4975 28.026 95.52 27.5298C95.52 25.1598 93.66 24.2098 91.2 24.2098C88.74 24.2098 86.36 25.8098 84.76 27.4898L81.4 42.6598H78.16L82.78 21.7998H86L85.31 24.7998C87.12 23.0298 89.71 21.2598 92.69 21.2598C96.36 21.2598 98.91 23.0698 98.91 26.3898C98.885 26.9872 98.7979 27.5804 98.65 28.1598L95.45 42.6298L92.28 42.6598Z" fill="#455351"/>
<path d="M98.88 39.47L101 37.26C101.825 38.2983 102.877 39.1345 104.074 39.7046C105.272 40.2748 106.584 40.564 107.91 40.55C110.91 40.55 112.7 38.77 112.7 36.87C112.7 32.87 101.7 33.51 101.7 27.72C101.7 24.27 104.55 21.29 109.6 21.29C113.14 21.29 116.17 22.8 117.6 24.7L115.7 26.81C114.7 25.26 112.16 23.92 109.44 23.92C106.72 23.92 104.95 25.34 104.95 27.11C104.95 30.83 115.95 30.22 115.95 36.31C115.95 39.94 113.01 43.18 107.74 43.18C103.94 43.18 100.83 41.88 98.88 39.47Z" fill="#455351"/>
<path d="M118.92 39.3796C118.931 38.9735 118.975 38.5689 119.05 38.1696L122.05 24.6496H118.6L119.25 21.7996H122.7L124 16.0996H127.2L125.95 21.7996H130.22L129.57 24.6496H125.34L122.45 37.5196C122.428 37.7925 122.428 38.0667 122.45 38.3396C122.45 39.5896 123.14 40.2896 124.52 40.2896C125.244 40.2746 125.945 40.0294 126.52 39.5896L126.86 42.1896C125.974 42.8499 124.895 43.2012 123.79 43.1896C120.78 43.1796 118.92 41.9996 118.92 39.3796Z" fill="#455351"/>
<path d="M146.77 25.0896L147.51 21.7996H150.75L146.13 42.6596H142.89L143.53 39.6596C142.736 40.7349 141.703 41.6109 140.513 42.2183C139.322 42.8258 138.007 43.148 136.67 43.1596C131.92 43.1596 128.59 40.0096 128.59 34.5696C128.59 27.7896 132.78 21.2696 139.52 21.2696C140.957 21.2196 142.381 21.5458 143.653 22.2158C144.924 22.8859 145.999 23.8765 146.77 25.0896V25.0896ZM132 33.9996C132 37.8896 134.37 40.3096 137.82 40.3096C139.087 40.2464 140.323 39.8935 141.432 39.2781C142.542 38.6627 143.496 37.8012 144.22 36.7596L146.22 27.5696C145.574 26.5067 144.658 25.6334 143.566 25.0381C142.474 24.4428 141.244 24.1466 140 24.1796C135.2 24.1796 132 28.9996 132 33.9996Z" fill="#455351"/>
<path d="M164.39 42.6598L167.39 28.9698C167.514 28.4887 167.588 27.996 167.61 27.4998C167.61 25.1298 165.75 24.1798 163.29 24.1798C160.83 24.1798 158.46 25.7798 156.86 27.4598L153.49 42.6598H150.25L154.87 21.7998H158.11L157.42 24.7998C159.23 23.0298 161.82 21.2598 164.8 21.2598C168.47 21.2598 171.02 23.0698 171.02 26.3898C170.995 26.9872 170.908 27.5804 170.76 28.1598L167.57 42.6298L164.39 42.6598Z" fill="#455351"/>
<path d="M173.29 39.3796C173.301 38.9735 173.345 38.5689 173.42 38.1696L176.42 24.6496H173L173.64 21.7996H177.1L178.35 16.0996H181.55L180.29 21.7996H184.57L183.92 24.6496H179.69L176.8 37.5196C176.773 37.7923 176.773 38.067 176.8 38.3396C176.8 39.5896 177.49 40.2896 178.88 40.2896C179.604 40.2767 180.306 40.0313 180.88 39.5896L181.23 42.1896C180.344 42.8499 179.265 43.2012 178.16 43.1896C175.14 43.1796 173.29 41.9996 173.29 39.3796Z" fill="#455351"/>
<path d="M198.07 42.6594V29.9994C198.07 27.0994 196.56 26.1994 194.23 26.1994C193.306 26.2083 192.397 26.4304 191.573 26.8484C190.749 27.2664 190.033 27.8691 189.48 28.6094V42.6594H184V13.8594H189.53V24.4794C190.452 23.4612 191.579 22.6503 192.837 22.1004C194.096 21.5504 195.457 21.274 196.83 21.2894C201.41 21.2894 203.61 23.7894 203.61 27.8494V42.6594H198.07Z" fill="#455351"/>
<path d="M205.33 32.2092C205.278 30.7542 205.527 29.3042 206.062 27.9502C206.597 26.5963 207.407 25.3679 208.44 24.3421C209.474 23.3164 210.708 22.5157 212.066 21.9903C213.424 21.4648 214.875 21.2261 216.33 21.2892C223.24 21.2892 227.33 26.2892 227.33 32.2092C227.33 35.1345 226.168 37.9401 224.099 40.0086C222.031 42.0771 219.225 43.2392 216.3 43.2392C213.375 43.2392 210.569 42.0771 208.501 40.0086C206.432 37.9401 205.27 35.1345 205.27 32.2092H205.33ZM221.69 32.2092C221.69 28.9692 219.79 26.2092 216.34 26.2092C212.89 26.2092 211 28.9992 211 32.2092C211 35.4192 212.9 38.2992 216.31 38.2992C219.72 38.2992 221.69 35.4892 221.69 32.2092Z" fill="#455351"/>
<path d="M255 42.66V29.49C255 27.55 254.14 26.17 251.89 26.17C251.033 26.2103 250.196 26.4489 249.447 26.8671C248.697 27.2853 248.055 27.8716 247.57 28.58V42.66H242.05V29.49C242.05 27.55 241.18 26.17 238.94 26.17C238.085 26.2207 237.252 26.4637 236.504 26.881C235.756 27.2983 235.112 27.8791 234.62 28.58V42.66H229.13V21.8H234.62V24.48C235.474 23.5046 236.521 22.7174 237.695 22.1682C238.869 21.6191 240.144 21.32 241.44 21.29C244.51 21.29 246.49 22.71 247.23 25.04C248.049 23.8987 249.125 22.965 250.37 22.3138C251.615 21.6627 252.995 21.312 254.4 21.29C258.24 21.29 260.53 23.29 260.53 27.59V42.66H255Z" fill="#455351"/>
<path d="M262.33 32.2092C262.292 30.7758 262.544 29.3496 263.072 28.0162C263.599 26.6827 264.39 25.4696 265.398 24.4497C266.406 23.4297 267.609 22.624 268.936 22.0809C270.263 21.5378 271.686 21.2685 273.12 21.2892C279.39 21.2892 283.57 25.9492 283.57 32.7292V33.9992H268.07C268.46 36.5492 270.53 38.6692 274.07 38.6692C276.089 38.6588 278.042 37.9524 279.6 36.6692L282.06 40.2992C279.636 42.2618 276.587 43.2875 273.47 43.1892C267.12 43.1792 262.33 38.8992 262.33 32.2092ZM273.12 25.7792C271.853 25.6912 270.602 26.109 269.643 26.9413C268.683 27.7735 268.092 28.9523 268 30.2192H278.28C278.236 29.5877 278.067 28.9713 277.783 28.4056C277.499 27.8398 277.106 27.336 276.626 26.9231C276.146 26.5102 275.589 26.1966 274.987 26.0002C274.386 25.8039 273.751 25.7288 273.12 25.7792V25.7792Z" fill="#455351"/>
<path d="M56.17 38C52.23 46 42.92 51.91 31.89 51.9C20.86 51.89 11.51 46 7.58 38L6.09 35L0 37.92L1.5 40.92C6.74 51.52 18.5 58.63 31.89 58.64C45.28 58.65 57 51.59 62.25 41L63.75 38L57.68 35L56.17 38Z" fill="#F08656"/>
<path d="M53.57 47.7696V21.6896C53.5652 20.7922 53.2057 19.9331 52.57 19.2996L34.27 0.999607C33.6344 0.365137 32.7731 0.00878906 31.875 0.00878906C30.9769 0.00878906 30.1156 0.365137 29.48 0.999607L11.17 19.2996C10.5343 19.9331 10.1748 20.7922 10.17 21.6896V47.7696C10.17 48.6687 10.5272 49.531 11.1629 50.1667C11.7987 50.8024 12.6609 51.1596 13.56 51.1596C14.4591 51.1596 15.3213 50.8024 15.9571 50.1667C16.5928 49.531 16.95 48.6687 16.95 47.7696V23.0996L31.88 8.18961L46.79 23.0996V47.7696C46.79 48.6687 47.1472 49.531 47.7829 50.1667C48.4187 50.8024 49.2809 51.1596 50.18 51.1596C51.0791 51.1596 51.9413 50.8024 52.5771 50.1667C53.2128 49.531 53.57 48.6687 53.57 47.7696Z" fill="#F08656"/>
</g>
<defs>
<clipPath id="clip0">
<rect width="283.57" height="58.68" fill="white"/>
</clipPath>
</defs>
</svg>
