<svg width="285" height="59" viewBox="0 0 285 59" fill="none" xmlns="http://www.w3.org/2000/svg">
<path d="M71.3301 42.6599L75.9501 21.8099H79.1901L74.5701 42.6599H71.3301ZM76.4701 16.9299C76.4829 16.2815 76.7461 15.6632 77.2047 15.2046C77.6633 14.746 78.2816 14.4827 78.9301 14.4699C79.1865 14.4619 79.442 14.5049 79.6818 14.5963C79.9215 14.6877 80.1407 14.8258 80.3267 15.0025C80.5127 15.1792 80.6618 15.3911 80.7654 15.6258C80.869 15.8605 80.9249 16.1134 80.9301 16.3699C80.9248 17.0207 80.6639 17.6434 80.2037 18.1036C79.7435 18.5638 79.1209 18.8247 78.4701 18.8299C78.2126 18.8421 77.9554 18.802 77.7139 18.7121C77.4723 18.6222 77.2514 18.4843 77.0646 18.3068C76.8777 18.1293 76.7288 17.9158 76.6266 17.6792C76.5244 17.4425 76.4712 17.1877 76.4701 16.9299V16.9299Z" fill="white"/>
<path d="M92.84 42.66L95.84 28.97C95.9596 28.4918 96.0299 28.0026 96.0499 27.51C96.0499 25.13 94.2 24.18 91.74 24.18C89.28 24.18 86.8999 25.78 85.2999 27.46L81.9299 42.66H78.71L83.33 21.81H86.5599L85.87 24.81C87.69 23.04 90.28 21.27 93.26 21.27C96.93 21.27 99.48 23.08 99.48 26.41C99.4536 27.0073 99.3665 27.6004 99.22 28.18L96.02 42.64L92.84 42.66Z" fill="white"/>
<path d="M99.4399 39.47L101.52 37.2701C102.345 38.3058 103.395 39.1396 104.591 39.708C105.786 40.2764 107.096 40.5644 108.42 40.55C111.42 40.55 113.22 38.7801 113.22 36.8801C113.22 32.8801 102.22 33.51 102.22 27.72C102.22 24.27 105.07 21.29 110.12 21.29C113.66 21.29 116.69 22.8 118.12 24.7L116.22 26.8201C115.22 25.2601 112.68 23.92 109.96 23.92C107.24 23.92 105.47 25.35 105.47 27.12C105.47 30.83 116.47 30.2301 116.47 36.3201C116.47 39.9401 113.53 43.1801 108.26 43.1801C104.5 43.1801 101.39 41.89 99.4399 39.47Z" fill="white"/>
<path d="M119.48 39.3801C119.492 38.974 119.536 38.5695 119.61 38.1701L122.61 24.6601H119.16L119.8 21.8101H123.26L124.51 16.1101H127.71L126.45 21.8101H130.71L130.06 24.6601H125.83L122.94 37.5201C122.912 37.7961 122.912 38.0741 122.94 38.3501C122.94 39.6001 123.64 40.2901 125.02 40.2901C125.743 40.2752 126.442 40.0339 127.02 39.6001L127.37 42.1901C126.484 42.8504 125.405 43.2017 124.3 43.1901C121.34 43.1801 119.48 42.0201 119.48 39.3801Z" fill="white"/>
<path d="M147.33 25.0899L148.07 21.8099H151.3L146.71 42.6599H143.47L144.12 39.6599C143.325 40.7341 142.292 41.6092 141.101 42.2165C139.911 42.8238 138.596 43.1467 137.26 43.1599C132.51 43.1599 129.18 40.0099 129.18 34.5699C129.18 27.7899 133.37 21.2699 140.11 21.2699C141.541 21.2252 142.96 21.5538 144.226 22.2236C145.492 22.8934 146.561 23.8812 147.33 25.0899V25.0899ZM132.56 33.9799C132.56 37.8699 134.94 40.2899 138.39 40.2899C139.655 40.23 140.89 39.8796 141.998 39.2657C143.106 38.6518 144.058 37.791 144.78 36.7499L146.78 27.5499C146.129 26.4742 145.201 25.5936 144.092 25.0006C142.983 24.4076 141.736 24.1241 140.48 24.1799C135.76 24.1799 132.56 28.9699 132.56 33.9799Z" fill="white"/>
<path d="M164.95 42.66L167.95 28.97C168.073 28.4922 168.147 28.0029 168.17 27.51C168.17 25.13 166.31 24.18 163.85 24.18C161.39 24.18 159.01 25.78 157.42 27.46L154.05 42.66H150.81L155.43 21.81H158.71L158.02 24.81C159.83 23.04 162.42 21.27 165.4 21.27C169.07 21.27 171.62 23.08 171.62 26.41C171.594 27.0073 171.507 27.6004 171.36 28.18L168.17 42.64L164.95 42.66Z" fill="white"/>
<path d="M173.85 39.3801C173.862 38.974 173.906 38.5695 173.98 38.1701L176.98 24.6601H173.52L174.17 21.8101H177.63L178.88 16.1101H182.07L180.82 21.8101H185.1L184.45 24.6601H180.22L177.32 37.5201C177.298 37.7963 177.298 38.0739 177.32 38.3501C177.32 39.6001 178.01 40.2901 179.39 40.2901C180.112 40.2752 180.812 40.0339 181.39 39.6001L181.73 42.1901C180.848 42.8517 179.772 43.2032 178.67 43.1901C175.71 43.1801 173.85 42.0201 173.85 39.3801Z" fill="white"/>
<path d="M198.63 42.6601V29.9701C198.63 27.0701 197.12 26.1701 194.79 26.1701C193.865 26.1802 192.955 26.4038 192.131 26.8236C191.307 27.2434 190.591 27.848 190.04 28.5901V42.6601H184.51V13.8601H190.04V24.4801C190.961 23.4614 192.088 22.6502 193.347 22.1002C194.605 21.5502 195.966 21.2741 197.34 21.2901C201.91 21.2901 204.12 23.7901 204.12 27.8501V42.6601H198.63Z" fill="white"/>
<path d="M205.89 32.21C205.89 30.0344 206.535 27.9076 207.744 26.0987C208.952 24.2898 210.67 22.8799 212.68 22.0473C214.69 21.2147 216.902 20.9969 219.036 21.4213C221.17 21.8458 223.13 22.8934 224.668 24.4318C226.206 25.9702 227.254 27.9302 227.679 30.064C228.103 32.1978 227.885 34.4095 227.053 36.4195C226.22 38.4295 224.81 40.1474 223.001 41.3561C221.192 42.5648 219.066 43.21 216.89 43.21C215.429 43.2722 213.971 43.0303 212.608 42.4995C211.245 41.9688 210.007 41.1607 208.973 40.1266C207.939 39.0925 207.131 37.8548 206.6 36.492C206.07 35.1293 205.828 33.6711 205.89 32.21V32.21ZM222.25 32.21C222.25 28.97 220.35 26.21 216.9 26.21C213.45 26.21 211.59 29.01 211.59 32.21C211.59 35.41 213.49 38.3 216.9 38.3C220.31 38.3 222.25 35.5 222.25 32.21Z" fill="white"/>
<path d="M255.59 42.66V29.4901C255.59 27.5501 254.73 26.17 252.48 26.17C251.621 26.2099 250.784 26.4494 250.034 26.8695C249.284 27.2896 248.642 27.8787 248.16 28.59V42.66H242.63V29.4901C242.63 27.5501 241.77 26.17 239.53 26.17C238.674 26.2204 237.84 26.4644 237.092 26.8835C236.344 27.3027 235.7 27.8862 235.21 28.59V42.66H229.71V21.81H235.2V24.48C236.052 23.5027 237.099 22.7142 238.273 22.1649C239.447 21.6155 240.724 21.3176 242.02 21.29C245.09 21.29 247.02 22.71 247.81 25.05C248.623 23.9036 249.695 22.9654 250.939 22.312C252.184 21.6586 253.565 21.3084 254.97 21.29C258.82 21.29 261.11 23.29 261.11 27.59V42.66H255.59Z" fill="white"/>
<path d="M262.89 32.2099C262.852 30.774 263.105 29.3452 263.634 28.0098C264.163 26.6743 264.957 25.4598 265.968 24.4394C266.979 23.419 268.186 22.6139 269.517 22.0727C270.847 21.5314 272.274 21.2651 273.71 21.2899C279.97 21.2899 284.16 25.9499 284.16 32.7299V34.0299H268.66C269.05 36.5699 271.12 38.6899 274.66 38.6899C276.679 38.6845 278.634 37.9775 280.19 36.6899L282.65 40.3199C280.226 42.2825 277.177 43.3082 274.06 43.2099C267.71 43.1799 262.89 38.9099 262.89 32.2099ZM273.68 25.7799C272.416 25.7002 271.172 26.1232 270.218 26.9567C269.265 27.7902 268.68 28.9667 268.59 30.2299H278.86C278.82 29.5976 278.654 28.9796 278.372 28.4121C278.09 27.8446 277.698 27.339 277.218 26.9247C276.739 26.5105 276.182 26.1958 275.579 25.9993C274.977 25.8027 274.341 25.7282 273.71 25.7799H273.68Z" fill="white"/>
<path d="M56.7101 38.02C52.7701 46.02 43.4501 51.91 32.4301 51.9C21.4101 51.89 12.0501 46 8.12012 37.97L6.62012 34.97L0.540039 37.97L2.04004 40.97C7.27004 51.56 18.9801 58.67 32.4301 58.68C45.8801 58.69 57.53 51.59 62.79 41.04L64.29 38.04L58.2201 35.04L56.7101 38.04V38.02Z" fill="white"/>
<path d="M54.13 47.7699V21.6999C54.1306 21.2536 54.0424 20.8116 53.8707 20.3996C53.6991 19.9876 53.4473 19.6138 53.13 19.2999L34.83 0.999893C34.5166 0.683334 34.1436 0.432037 33.7325 0.260536C33.3215 0.0890349 32.8804 0.000732422 32.4349 0.000732422C31.9895 0.000732422 31.5485 0.0890349 31.1375 0.260536C30.7264 0.432037 30.3533 0.683334 30.0399 0.999893L11.71 19.2999C11.0728 19.9364 10.7133 20.7992 10.71 21.6999V47.7699C10.71 48.669 11.0671 49.5312 11.7029 50.167C12.3386 50.8027 13.2009 51.1599 14.1 51.1599C14.9991 51.1599 15.8613 50.8027 16.4971 50.167C17.1328 49.5312 17.49 48.669 17.49 47.7699V23.0999L32.3999 8.1899L47.3199 23.0999V47.7699C47.3199 48.669 47.6771 49.5312 48.3129 50.167C48.9486 50.8027 49.8109 51.1599 50.71 51.1599C51.609 51.1599 52.4713 50.8027 53.1071 50.167C53.7428 49.5312 54.1 48.669 54.1 47.7699H54.13Z" fill="white"/>
</svg>
