<svg width="48" height="48" viewBox="0 0 48 48" fill="none" xmlns="http://www.w3.org/2000/svg">
<g clip-path="url(#clip0_638:571)">
<path d="M34.8174 2.0232e-06C35.2491 9.42005e-05 35.6711 0.128177 36.03 0.368058C36.3889 0.60794 36.6687 0.948851 36.8339 1.34769C36.999 1.74653 37.0423 2.1854 36.9581 2.6088C36.8739 3.03221 36.666 3.42115 36.3608 3.72645L16.0739 24.0134L36.3608 44.3004C36.7585 44.7121 36.9785 45.2635 36.9736 45.8359C36.9686 46.4083 36.739 46.9559 36.3342 47.3606C35.9295 47.7654 35.382 47.9949 34.8096 47.9999C34.2372 48.0049 33.6857 47.7849 33.274 47.3872L11.4436 25.5568C11.0344 25.1474 10.8045 24.5923 10.8045 24.0134C10.8045 23.4345 11.0344 22.8794 11.4436 22.47L33.274 0.63963C33.6833 0.230203 34.2385 0.000125665 34.8174 2.0232e-06Z" fill="white"/>
</g>
<defs>
<clipPath id="clip0_638:571">
<rect width="48" height="48" fill="white" transform="translate(48 48) rotate(-180)"/>
</clipPath>
</defs>
</svg>
