<svg width="48" height="48" viewBox="0 0 48 48" fill="none" xmlns="http://www.w3.org/2000/svg">
<g clip-path="url(#clip0_638:570)">
<path d="M13.1826 48C12.7509 47.9999 12.3289 47.8718 11.97 47.6319C11.6111 47.3921 11.3313 47.0511 11.1661 46.6523C11.001 46.2535 10.9577 45.8146 11.0419 45.3912C11.1261 44.9678 11.334 44.5789 11.6392 44.2736L31.9261 23.9866L11.6392 3.69962C11.2415 3.28789 11.0215 2.73645 11.0264 2.16407C11.0314 1.59168 11.261 1.04415 11.6658 0.639397C12.0705 0.234644 12.618 0.0050564 13.1904 8.25246e-05C13.7628 -0.00489135 14.3143 0.215146 14.726 0.612804L36.5564 22.4432C36.9656 22.8526 37.1955 23.4077 37.1955 23.9866C37.1955 24.5655 36.9656 25.1206 36.5564 25.53L14.726 47.3604C14.3167 47.7698 13.7615 47.9999 13.1826 48Z" fill="white"/>
</g>
<defs>
<clipPath id="clip0_638:570">
<rect width="48" height="48" fill="white"/>
</clipPath>
</defs>
</svg>
