<svg width="66" height="66" viewBox="0 0 66 66" fill="none" xmlns="http://www.w3.org/2000/svg">
<path d="M49.8 0H1C0.4 0 0 0.4 0 1V65C0 65.6 0.4 66 1 66H49.8C50.4 66 50.8 65.6 50.8 65V1C50.8 0.4 50.4 0 49.8 0ZM48.8 64H2V2H48.8V64Z" fill="white"/>
<path d="M5.80078 23.9004H45.1008C45.7008 23.9004 46.1008 23.5004 46.1008 22.9004V6.40039C46.1008 5.80039 45.7008 5.40039 45.1008 5.40039H5.80078C5.20078 5.40039 4.80078 5.80039 4.80078 6.40039V22.9004C4.80078 23.4004 5.20078 23.9004 5.80078 23.9004ZM6.80078 7.40039H44.1008V21.9004H6.80078V7.40039Z" fill="white"/>
<path d="M12.4008 27.1992H6.30078C5.70078 27.1992 5.30078 27.5992 5.30078 28.1992V34.4992C5.30078 35.0992 5.70078 35.4992 6.30078 35.4992H12.4008C13.0008 35.4992 13.4008 35.0992 13.4008 34.4992V28.1992C13.4008 27.5992 13.0008 27.1992 12.4008 27.1992ZM11.4008 33.4992H7.30078V29.1992H11.4008V33.4992Z" fill="white"/>
<path d="M23.2992 27.1992H17.1992C16.5992 27.1992 16.1992 27.5992 16.1992 28.1992V34.4992C16.1992 35.0992 16.5992 35.4992 17.1992 35.4992H23.2992C23.8992 35.4992 24.2992 35.0992 24.2992 34.4992V28.1992C24.2992 27.5992 23.7992 27.1992 23.2992 27.1992ZM22.2992 33.4992H18.1992V29.1992H22.2992V33.4992Z" fill="white"/>
<path d="M34.2016 27.1992H28.1016C27.5016 27.1992 27.1016 27.5992 27.1016 28.1992V34.4992C27.1016 35.0992 27.5016 35.4992 28.1016 35.4992H34.2016C34.8016 35.4992 35.2016 35.0992 35.2016 34.4992V28.1992C35.2016 27.5992 34.7016 27.1992 34.2016 27.1992ZM33.2016 33.4992H29.1016V29.1992H33.2016V33.4992Z" fill="white"/>
<path d="M45.1 27.1992H39C38.4 27.1992 38 27.5992 38 28.1992V34.4992C38 35.0992 38.4 35.4992 39 35.4992H45.1C45.7 35.4992 46.1 35.0992 46.1 34.4992V28.1992C46.1 27.5992 45.6 27.1992 45.1 27.1992ZM44.1 33.4992H40V29.1992H44.1V33.4992Z" fill="white"/>
<path d="M12.4008 39.5H6.30078C5.70078 39.5 5.30078 39.9 5.30078 40.5V46.8C5.30078 47.4 5.70078 47.8 6.30078 47.8H12.4008C13.0008 47.8 13.4008 47.4 13.4008 46.8V40.5C13.4008 40 13.0008 39.5 12.4008 39.5ZM11.4008 45.8H7.30078V41.5H11.4008V45.8Z" fill="white"/>
<path d="M23.2992 39.5H17.1992C16.5992 39.5 16.1992 39.9 16.1992 40.5V46.8C16.1992 47.4 16.5992 47.8 17.1992 47.8H23.2992C23.8992 47.8 24.2992 47.4 24.2992 46.8V40.5C24.2992 40 23.7992 39.5 23.2992 39.5ZM22.2992 45.8H18.1992V41.5H22.2992V45.8Z" fill="white"/>
<path d="M34.2016 39.5H28.1016C27.5016 39.5 27.1016 39.9 27.1016 40.5V46.8C27.1016 47.4 27.5016 47.8 28.1016 47.8H34.2016C34.8016 47.8 35.2016 47.4 35.2016 46.8V40.5C35.2016 40 34.7016 39.5 34.2016 39.5ZM33.2016 45.8H29.1016V41.5H33.2016V45.8Z" fill="white"/>
<path d="M45.1 39.5H39C38.4 39.5 38 39.9 38 40.5V59.1C38 59.7 38.4 60.1 39 60.1H45.1C45.7 60.1 46.1 59.7 46.1 59.1V40.5C46.1 40 45.6 39.5 45.1 39.5ZM44.1 58.1H40V41.5H44.1V58.1Z" fill="white"/>
<path d="M12.4008 51.8008H6.30078C5.70078 51.8008 5.30078 52.2008 5.30078 52.8008V59.1008C5.30078 59.7008 5.70078 60.1008 6.30078 60.1008H12.4008C13.0008 60.1008 13.4008 59.7008 13.4008 59.1008V52.8008C13.4008 52.3008 13.0008 51.8008 12.4008 51.8008ZM11.4008 58.1008H7.30078V53.8008H11.4008V58.1008Z" fill="white"/>
<path d="M23.2992 51.8008H17.1992C16.5992 51.8008 16.1992 52.2008 16.1992 52.8008V59.1008C16.1992 59.7008 16.5992 60.1008 17.1992 60.1008H23.2992C23.8992 60.1008 24.2992 59.7008 24.2992 59.1008V52.8008C24.2992 52.3008 23.7992 51.8008 23.2992 51.8008ZM22.2992 58.1008H18.1992V53.8008H22.2992V58.1008Z" fill="white"/>
<path d="M34.2016 51.8008H28.1016C27.5016 51.8008 27.1016 52.2008 27.1016 52.8008V59.1008C27.1016 59.7008 27.5016 60.1008 28.1016 60.1008H34.2016C34.8016 60.1008 35.2016 59.7008 35.2016 59.1008V52.8008C35.2016 52.3008 34.7016 51.8008 34.2016 51.8008ZM33.2016 58.1008H29.1016V53.8008H33.2016V58.1008Z" fill="white"/>
<path d="M59.8 12.0996C56.4 12.0996 53.5 14.8996 53.5 18.3996V50.6996L53.6 50.9996L58.9 65.2996C59 65.6996 59.4 65.9996 59.8 65.9996C60.2 65.9996 60.6 65.6996 60.7 65.2996L65.9 50.9996L66 50.6996V18.2996C66 14.8996 63.2 12.0996 59.8 12.0996ZM55.5 23.8996H64V49.6996H55.5V23.8996ZM59.8 14.0996C62.1 14.0996 64.1 15.9996 64.1 18.3996V21.8996H55.6V18.3996C55.5 15.9996 57.4 14.0996 59.8 14.0996ZM59.8 62.0996L56 51.6996H63.6L59.8 62.0996Z" fill="white"/>
</svg>
