<svg width="48" height="48" viewBox="0 0 48 48" fill="none" xmlns="http://www.w3.org/2000/svg">
<path d="M4.67512 17.0768H7.07058C7.50612 17.0768 7.79648 16.7864 7.79648 16.3509C7.79648 15.9154 7.50612 15.625 7.07058 15.625H4.67512C4.23958 15.625 3.94922 15.9154 3.94922 16.3509C3.94922 16.7138 4.23958 17.0768 4.67512 17.0768Z" fill="black"/>
<path d="M9.97199 17.0768H12.3675C12.803 17.0768 13.0934 16.7864 13.0934 16.3509C13.0934 15.9154 12.803 15.625 12.3675 15.625H9.97199C9.53645 15.625 9.24609 15.9154 9.24609 16.3509C9.24609 16.7138 9.60904 17.0768 9.97199 17.0768Z" fill="black"/>
<path d="M15.3431 17.0768H17.7385C18.1741 17.0768 18.4644 16.7864 18.4644 16.3509C18.4644 15.9154 18.1741 15.625 17.7385 15.625H15.3431C14.9075 15.625 14.6172 15.9154 14.6172 16.3509C14.6172 16.7138 14.9075 17.0768 15.3431 17.0768Z" fill="black"/>
<path d="M20.64 17.0768H23.0354C23.471 17.0768 23.7613 16.7864 23.7613 16.3509C23.7613 15.9154 23.471 15.625 23.0354 15.625H20.64C20.2044 15.625 19.9141 15.9154 19.9141 16.3509C19.9141 16.7138 20.277 17.0768 20.64 17.0768Z" fill="black"/>
<path d="M26.0111 17.0768H28.4065C28.8421 17.0768 29.1324 16.7864 29.1324 16.3509C29.1324 15.9154 28.8421 15.625 28.4065 15.625H26.0111C25.5755 15.625 25.2852 15.9154 25.2852 16.3509C25.2852 16.7138 25.5755 17.0768 26.0111 17.0768Z" fill="black"/>
<path d="M31.3157 17.0768H33.7112C34.1467 17.0768 34.4371 16.7864 34.4371 16.3509C34.4371 15.9154 34.1467 15.625 33.7112 15.625H31.3157C30.8802 15.625 30.5898 15.9154 30.5898 16.3509C30.5898 16.7138 30.9528 17.0768 31.3157 17.0768Z" fill="black"/>
<path d="M46.2659 20.7788H35.8855V19.2544H36.5388C36.9744 19.2544 37.2647 18.9641 37.2647 18.5285V14.7539H37.7003C38.1358 14.7539 38.4262 14.4635 38.4262 14.028C38.4262 13.7376 38.281 13.5198 38.0632 13.3747L19.6254 0.163327C19.4077 -0.0544423 19.0447 -0.0544423 18.7543 0.163327L0.316541 13.5198C0.0261817 13.7376 -0.0464081 14.028 0.0261817 14.3183C0.0987715 14.6087 0.389131 14.8265 0.75208 14.8265H1.18762V18.6011C1.18762 19.0367 1.47798 19.327 1.91352 19.327H2.56682V41.7573C2.56682 42.1928 2.85718 42.4832 3.29272 42.4832C14.399 42.4832 12.0035 42.4832 22.9646 42.4832V46.3304C22.9646 47.2741 23.6905 48 24.6341 48H46.2659C47.2095 48 47.9354 47.2741 47.9354 46.3304V22.4484C47.9354 21.5047 47.2095 20.7788 46.2659 20.7788ZM19.1899 1.61512L35.3774 13.3747H3.00236L19.1899 1.61512ZM35.7404 14.8265V17.8752C30.9494 17.8752 7.50293 17.8752 2.56682 17.8752V14.8265H35.7404ZM4.01862 19.2544H34.4337V20.7788H24.6341C23.6905 20.7788 22.9646 21.5047 22.9646 22.4484V25.352H13.8908C13.4553 25.352 13.1649 25.6423 13.1649 26.0779V40.9588H4.01862V19.2544ZM14.6167 41.0314V26.8764H22.9646V41.0314H14.6167ZM46.4837 46.2578C46.4837 46.403 46.4111 46.4756 46.2659 46.4756H24.6341C24.4889 46.4756 24.4163 46.403 24.4163 46.2578V22.4484C24.4163 22.3032 24.4889 22.2306 24.6341 22.2306C27.1022 22.2306 43.5801 22.2306 46.2659 22.2306C46.4111 22.2306 46.4837 22.3032 46.4837 22.4484V46.2578Z" fill="black"/>
<path d="M44.0172 23.5371H26.8861C26.4505 23.5371 26.1602 23.8275 26.1602 24.263V30.4331C26.1602 30.8687 26.4505 31.159 26.8861 31.159H44.0898C44.5254 31.159 44.8157 30.8687 44.8157 30.4331V24.263C44.7431 23.8275 44.4528 23.5371 44.0172 23.5371ZM43.2913 29.7072H27.612V24.9889H43.3639V29.7072H43.2913Z" fill="black"/>
<path d="M29.2057 33.1914H27.6087C27.1732 33.1914 26.8828 33.4818 26.8828 33.9173C26.8828 34.3528 27.1732 34.6432 27.6087 34.6432H29.2057C29.6412 34.6432 29.9316 34.3528 29.9316 33.9173C29.9316 33.4818 29.6412 33.1914 29.2057 33.1914Z" fill="black"/>
<path d="M33.9987 33.1914H32.4017C31.9661 33.1914 31.6758 33.4818 31.6758 33.9173C31.6758 34.3528 31.9661 34.6432 32.4017 34.6432H33.9987C34.4342 34.6432 34.7246 34.3528 34.7246 33.9173C34.7246 33.4818 34.4342 33.1914 33.9987 33.1914Z" fill="black"/>
<path d="M38.8619 33.1914H37.265C36.8294 33.1914 36.5391 33.4818 36.5391 33.9173C36.5391 34.3528 36.8294 34.6432 37.265 34.6432H38.8619C39.2975 34.6432 39.5878 34.3528 39.5878 33.9173C39.5878 33.4818 39.2249 33.1914 38.8619 33.1914Z" fill="black"/>
<path d="M43.651 33.1914H42.054C41.6185 33.1914 41.3281 33.4818 41.3281 33.9173C41.3281 34.3528 41.6185 34.6432 42.054 34.6432H43.651C44.0865 34.6432 44.3769 34.3528 44.3769 33.9173C44.3769 33.4818 44.0139 33.1914 43.651 33.1914Z" fill="black"/>
<path d="M29.2057 36.6035H27.6087C27.1732 36.6035 26.8828 36.8939 26.8828 37.3294C26.8828 37.765 27.1732 38.0553 27.6087 38.0553H29.2057C29.6412 38.0553 29.9316 37.765 29.9316 37.3294C29.9316 36.9665 29.6412 36.6035 29.2057 36.6035Z" fill="black"/>
<path d="M33.9987 36.6035H32.4017C31.9661 36.6035 31.6758 36.8939 31.6758 37.3294C31.6758 37.765 31.9661 38.0553 32.4017 38.0553H33.9987C34.4342 38.0553 34.7246 37.765 34.7246 37.3294C34.7246 36.9665 34.4342 36.6035 33.9987 36.6035Z" fill="black"/>
<path d="M38.8619 36.6035H37.265C36.8294 36.6035 36.5391 36.8939 36.5391 37.3294C36.5391 37.765 36.8294 38.0553 37.265 38.0553H38.8619C39.2975 38.0553 39.5878 37.765 39.5878 37.3294C39.5878 36.9665 39.2249 36.6035 38.8619 36.6035Z" fill="black"/>
<path d="M43.651 36.6016H42.054C41.6185 36.6016 41.3281 36.8919 41.3281 37.3275C41.3281 37.763 41.6185 38.0534 42.054 38.0534H43.651C44.0865 38.0534 44.3769 37.763 44.3769 37.3275C44.3769 36.9645 44.0139 36.6016 43.651 36.6016Z" fill="black"/>
<path d="M29.2057 40.0156H27.6087C27.1732 40.0156 26.8828 40.306 26.8828 40.7415C26.8828 41.1771 27.1732 41.4674 27.6087 41.4674H29.2057C29.6412 41.4674 29.9316 41.1771 29.9316 40.7415C29.9316 40.3786 29.6412 40.0156 29.2057 40.0156Z" fill="black"/>
<path d="M33.9987 40.0156H32.4017C31.9661 40.0156 31.6758 40.306 31.6758 40.7415C31.6758 41.1771 31.9661 41.4674 32.4017 41.4674H33.9987C34.4342 41.4674 34.7246 41.1771 34.7246 40.7415C34.7246 40.3786 34.4342 40.0156 33.9987 40.0156Z" fill="black"/>
<path d="M38.8619 40.0156H37.265C36.8294 40.0156 36.5391 40.306 36.5391 40.7415C36.5391 41.1771 36.8294 41.4674 37.265 41.4674H38.8619C39.2975 41.4674 39.5878 41.1771 39.5878 40.7415C39.5878 40.3786 39.2249 40.0156 38.8619 40.0156Z" fill="black"/>
<path d="M43.651 40.0156H42.054C41.6185 40.0156 41.3281 40.306 41.3281 40.7415C41.3281 41.1771 41.6185 41.4674 42.054 41.4674H43.651C44.0865 41.4674 44.3769 41.1771 44.3769 40.7415C44.3769 40.3786 44.0139 40.0156 43.651 40.0156Z" fill="black"/>
<path d="M29.2057 43.5H27.6087C27.1732 43.5 26.8828 43.7904 26.8828 44.2259C26.8828 44.6614 27.1732 44.9518 27.6087 44.9518H29.2057C29.6412 44.9518 29.9316 44.6614 29.9316 44.2259C29.9316 43.7904 29.6412 43.5 29.2057 43.5Z" fill="black"/>
<path d="M33.9987 43.5H32.4017C31.9661 43.5 31.6758 43.7904 31.6758 44.2259C31.6758 44.6614 31.9661 44.9518 32.4017 44.9518H33.9987C34.4342 44.9518 34.7246 44.6614 34.7246 44.2259C34.7246 43.7904 34.4342 43.5 33.9987 43.5Z" fill="black"/>
<path d="M38.8619 43.5H37.265C36.8294 43.5 36.5391 43.7904 36.5391 44.2259C36.5391 44.6614 36.8294 44.9518 37.265 44.9518H38.8619C39.2975 44.9518 39.5878 44.6614 39.5878 44.2259C39.5878 43.7904 39.2249 43.5 38.8619 43.5Z" fill="black"/>
<path d="M43.651 43.5H42.054C41.6185 43.5 41.3281 43.7904 41.3281 44.2259C41.3281 44.6614 41.6185 44.9518 42.054 44.9518H43.651C44.0865 44.9518 44.3769 44.6614 44.3769 44.2259C44.3769 43.7904 44.0139 43.5 43.651 43.5Z" fill="black"/>
<path d="M19.1894 4.44531C17.0117 4.44531 15.2695 6.18747 15.2695 8.36516C15.2695 10.5429 17.0117 12.285 19.1894 12.285C21.3671 12.285 23.1092 10.5429 23.1092 8.36516C23.1092 6.18747 21.3671 4.44531 19.1894 4.44531ZM19.1894 10.8332C17.8102 10.8332 16.7213 9.74437 16.7213 8.36516C16.7213 6.98596 17.8102 5.89711 19.1894 5.89711C20.5686 5.89711 21.6574 6.98596 21.6574 8.36516C21.6574 9.74437 20.5686 10.8332 19.1894 10.8332Z" fill="black"/>
</svg>
