<svg width="84" height="84" viewBox="0 0 84 84" fill="none" xmlns="http://www.w3.org/2000/svg">
<path d="M55.87 40.1176C51.1996 38.572 45.8236 40.3192 42.0016 44.4688C38.1796 40.3108 32.8036 38.572 28.1332 40.1092C23.3116 41.6968 20.4472 46.2328 20.4808 52.2472C20.5312 64.0576 40.4308 74.9524 41.2708 75.406C41.4976 75.5404 41.7496 75.5992 42.0016 75.5992C42.2536 75.5992 42.5056 75.5404 42.7324 75.4144C43.5808 74.9608 63.472 64.066 63.5224 52.2556C63.556 46.2412 60.6916 41.7052 55.87 40.1176ZM40.7584 56.499C37.2556 54.4662 42.7744 67.3694 42.7324 58.499C42.7072 53.8874 48.0056 61.1498 51.5 59.999C52.3232 59.7302 40.1348 55.499 41 55.499C44.2844 55.499 39.5992 64.2146 42.0016 67.499C42.5812 68.2886 59.8684 56.7886 60.448 55.999C63.4888 51.8494 47.5604 49.197 51.5 50.499C54.9944 51.6498 56.5252 51.3874 56.5 55.999C56.4664 64.8694 44.2612 54.4662 40.7584 56.499Z" fill="#F28756"/>
<path d="M63.8639 9.93759C63.8639 9.08919 63.1751 8.40039 62.3267 8.40039H55.4639C54.6155 8.40039 53.9267 9.08919 53.9267 9.93759V17.9428L42.9899 8.76159C42.4187 8.28279 41.5871 8.28279 41.0159 8.76159L8.95312 35.65L10.9271 38.002L41.9987 11.9452L54.4811 22.4116C54.9347 22.798 55.5731 22.882 56.1191 22.63C56.6567 22.378 57.0095 21.832 57.0095 21.2356V11.4748H60.7979V26.998C60.7979 27.4516 60.9995 27.88 61.3439 28.174L73.0787 38.002L75.0527 35.65L63.8639 26.284V9.93759Z" fill="#F28756"/>
</svg>
