<svg width="63" height="66" viewBox="0 0 63 66" fill="none" xmlns="http://www.w3.org/2000/svg">
<g clip-path="url(#clip0)">
<path d="M24.7189 12.564C24.3607 12.1529 23.6851 12.1534 23.3261 12.564L0.250035 39.0474C-0.00412691 39.3394 -0.0711331 39.7628 0.0795154 40.1265C0.230626 40.4898 0.57074 40.7247 0.946437 40.7247H6.84206V64.9908C6.84206 65.543 7.26582 65.9908 7.78847 65.9908H17.9859C18.5085 65.9908 18.9323 65.543 18.9323 64.9908V50.5904H29.1131V64.9908C29.1131 65.543 29.5368 65.9908 30.0595 65.9908H40.2569C40.7796 65.9908 41.2033 65.543 41.2033 64.9908V40.7247H47.0989C47.4746 40.7247 47.8148 40.4898 47.9659 40.1265C48.1165 39.7628 48.0495 39.3394 47.7953 39.0474L24.7189 12.564ZM40.2569 38.7247C39.7343 38.7247 39.3105 39.1724 39.3105 39.7247V63.9908H31.0059V49.5904C31.0059 49.0381 30.5821 48.5904 30.0595 48.5904H17.9859C17.4632 48.5904 17.0395 49.0381 17.0395 49.5904V63.9908H8.73487V39.7247C8.73487 39.1724 8.31112 38.7247 7.78847 38.7247H3.10404L24.0225 14.7178L44.9413 38.7247H40.2569Z" fill="white"/>
<path d="M60.847 20.5348C61.0318 20.7301 61.2739 20.8277 61.5161 20.8277C61.7582 20.8277 62.0004 20.7301 62.1852 20.5348C62.5549 20.1441 62.5549 19.5113 62.1852 19.1207L58.2913 15.0068C58.2041 14.9145 58.0993 14.8414 57.9835 14.7907C57.7521 14.6896 57.4916 14.6896 57.2602 14.7907C57.1444 14.8414 57.0397 14.9145 56.9524 15.0068L53.0585 19.1207C52.6888 19.5113 52.6888 20.1441 53.0585 20.5348C53.4282 20.9254 54.0271 20.9254 54.3968 20.5348L56.6755 18.1274V60.1056L54.3968 57.6979C54.0271 57.3072 53.4282 57.3072 53.0585 57.6979C52.6888 58.0885 52.6888 58.7213 53.0585 59.1119L56.9524 63.2264C57.0397 63.3186 57.1444 63.3917 57.2602 63.4424C57.3759 63.493 57.4986 63.5196 57.6219 63.5196C57.7451 63.5196 57.8678 63.493 57.9835 63.4424C58.0993 63.3917 58.2041 63.3186 58.2913 63.2264L62.1852 59.1119C62.5549 58.7213 62.5549 58.0885 62.1852 57.6979C61.8155 57.3072 61.2166 57.3072 60.847 57.6979L58.5683 60.1056V18.1274L60.847 20.5348Z" fill="white"/>
<path d="M6.43816 0.302734C6.06847 -0.0878906 5.46958 -0.0878906 5.09989 0.302734L1.20596 4.41718C1.11862 4.50934 1.04948 4.62 1.00147 4.74237C0.905759 4.98688 0.905759 5.26215 1.00147 5.50665C1.04948 5.62903 1.11862 5.73969 1.20596 5.83185L5.09989 9.94629C5.28473 10.1416 5.52688 10.2393 5.76902 10.2393C6.01117 10.2393 6.25332 10.1416 6.43816 9.94629C6.80785 9.55566 6.80785 8.92285 6.43816 8.53223L4.15949 6.12451H43.8877L41.609 8.53223C41.2393 8.92285 41.2393 9.55566 41.609 9.94629C41.7939 10.1416 42.036 10.2393 42.2782 10.2393C42.5203 10.2393 42.7625 10.1416 42.9473 9.94629L46.8412 5.83185C46.9286 5.73969 46.9977 5.62903 47.0457 5.50665C47.1414 5.26215 47.1414 4.98688 47.0457 4.74237C46.9977 4.62 46.9286 4.50934 46.8412 4.41718L42.9473 0.302734C42.5776 -0.0878906 41.9787 -0.0878906 41.609 0.302734C41.2393 0.693359 41.2393 1.32617 41.609 1.7168L43.8877 4.12451H4.15949L6.43816 1.7168C6.80785 1.32617 6.80785 0.693359 6.43816 0.302734Z" fill="white"/>
</g>
<defs>
<clipPath id="clip0">
<rect width="62.4628" height="66" fill="white"/>
</clipPath>
</defs>
</svg>
