<svg width="48" height="48" viewBox="0 0 48 48" fill="none" xmlns="http://www.w3.org/2000/svg">
<path d="M17.6683 23.5C17.6683 19.7262 20.7269 16.6661 24.5008 16.6661C28.2748 16.6661 31.335 19.7262 31.335 23.5C31.335 27.2738 28.2748 30.3339 24.5008 30.3339C20.7269 30.3339 17.6683 27.2738 17.6683 23.5ZM13.9739 23.5C13.9739 29.3138 18.6868 34.0265 24.5008 34.0265C30.3149 34.0265 35.0277 29.3138 35.0277 23.5C35.0277 17.6862 30.3149 12.9735 24.5008 12.9735C18.6868 12.9735 13.9739 17.6862 13.9739 23.5ZM32.9844 12.5561C32.9842 13.0427 33.1283 13.5183 33.3984 13.923C33.6686 14.3276 34.0527 14.6431 34.5021 14.8295C34.9516 15.0158 35.4462 15.0648 35.9235 14.97C36.4007 14.8753 36.8392 14.6412 37.1833 14.2973C37.5275 13.9534 37.762 13.5151 37.8571 13.038C37.9522 12.5608 37.9037 12.0662 37.7177 11.6166C37.5317 11.167 37.2165 10.7827 36.8121 10.5122C36.4076 10.2418 35.932 10.0973 35.4455 10.0971H35.4445C34.7923 10.0974 34.1669 10.3565 33.7056 10.8176C33.2444 11.2787 32.985 11.9039 32.9844 12.5561V12.5561ZM16.2185 40.1865C14.2197 40.0955 13.1334 39.7626 12.4114 39.4813C11.4543 39.1087 10.7713 38.6649 10.0533 37.9479C9.3353 37.2309 8.89084 36.5487 8.51986 35.5916C8.23842 34.87 7.90549 33.7833 7.81463 31.7846C7.71524 29.6238 7.6954 28.9746 7.6954 23.5002C7.6954 18.0257 7.71688 17.3784 7.81463 15.2157C7.90565 13.217 8.24105 12.1325 8.51986 11.4088C8.89248 10.4517 9.33628 9.76877 10.0533 9.05078C10.7704 8.33279 11.4526 7.88835 12.4114 7.51738C13.133 7.23596 14.2197 6.90304 16.2185 6.81218C18.3794 6.7128 19.0286 6.69295 24.5008 6.69295C29.9731 6.69295 30.6229 6.71444 32.7856 6.81218C34.7844 6.9032 35.8689 7.23858 36.5927 7.51738C37.5498 7.88835 38.2328 8.33377 38.9508 9.05078C39.6688 9.76779 40.1116 10.4517 40.4842 11.4088C40.7657 12.1304 41.0986 13.217 41.1895 15.2157C41.2889 17.3784 41.3087 18.0257 41.3087 23.5002C41.3087 28.9746 41.2889 29.622 41.1895 31.7846C41.0985 33.7833 40.7639 34.8696 40.4842 35.5916C40.1116 36.5487 39.6678 37.2316 38.9508 37.9479C38.2337 38.6643 37.5498 39.1087 36.5927 39.4813C35.8711 39.7627 34.7844 40.0957 32.7856 40.1865C30.6247 40.2859 29.9755 40.3057 24.5008 40.3057C19.0261 40.3057 18.3788 40.2859 16.2185 40.1865V40.1865ZM16.0487 3.12415C13.8663 3.22353 12.375 3.56957 11.0726 4.07633C9.72383 4.59966 8.58202 5.30174 7.44102 6.44088C6.30003 7.58003 5.59972 8.7236 5.07638 10.0723C4.56959 11.3755 4.22354 12.8659 4.12415 15.0483C4.02312 17.2341 4 17.9329 4 23.5C4 29.0671 4.02312 29.7659 4.12415 31.9517C4.22354 34.1343 4.56959 35.6245 5.07638 36.9277C5.59972 38.2756 6.30019 39.4205 7.44102 40.5591C8.58185 41.6978 9.72383 42.3989 11.0726 42.9237C12.3775 43.4304 13.8663 43.7765 16.0487 43.8759C18.2358 43.9752 18.9335 44 24.5008 44C30.0682 44 30.767 43.9769 32.9529 43.8759C35.1355 43.7765 36.6258 43.4304 37.929 42.9237C39.277 42.3989 40.4196 41.6983 41.5606 40.5591C42.7016 39.42 43.4004 38.2756 43.9253 36.9277C44.4321 35.6245 44.7797 34.1341 44.8775 31.9517C44.9769 29.7643 45 29.0671 45 23.5C45 17.9329 44.9769 17.2341 44.8775 15.0483C44.7781 12.8657 44.4321 11.3747 43.9253 10.0723C43.4004 8.72442 42.6998 7.58183 41.5606 6.44088C40.4214 5.29994 39.277 4.59966 37.9307 4.07633C36.6258 3.56957 35.1353 3.22189 32.9545 3.12415C30.7687 3.02476 30.0698 3 24.5025 3C18.9351 3 18.2358 3.02312 16.0487 3.12415Z" fill="#F28756"/>
</svg>
